<svg width="18" height="18" viewBox="0 0 18 18" fill="none" xmlns="http://www.w3.org/2000/svg">
<path fill-rule="evenodd" clip-rule="evenodd" d="M14.3033 3.6967C17.2322 6.62563 17.2322 11.3744 14.3033 14.3033C11.3744 17.2322 6.62563 17.2322 3.6967 14.3033C0.767767 11.3744 0.767767 6.62563 3.6967 3.6967C6.62563 0.767767 11.3744 0.767767 14.3033 3.6967ZM15.364 2.63604C18.8787 6.15076 18.8787 11.8492 15.364 15.364C11.8492 18.8787 6.15076 18.8787 2.63604 15.364C-0.87868 11.8492 -0.87868 6.15076 2.63604 2.63604C6.15076 -0.87868 11.8492 -0.87868 15.364 2.63604ZM11.6516 5.2877L12.7123 6.34836L10.0606 9.00001L12.7123 11.6517L11.6516 12.7123L8.99998 10.0607L6.34833 12.7123L5.28767 11.6517L7.93932 9.00001L5.28767 6.34836L6.34833 5.2877L8.99998 7.93935L11.6516 5.2877Z" fill="#C3C3C3"/>
</svg>
